# xmcd CD database file
#
# Track frame offsets:
#	150
#	14080
#	33665
#	51985
#	72775
#	92792
#	124190
#	144942
#	169707
#
# Disc length: 2572 seconds
#
# Revision: 2
# Processed by: cddbd v1.5.2PL0 Copyright (c) Steve Scherf et al.
# Submitted via: CDex 1.51
#
DISCID=7d0a0a09
DTITLE=Otis Rush - Blues Live!
DYEAR=1900
DGENRE=Blues
TTITLE0=Mean Old World
TTITLE1=All Your Love
TTITLE2=Will My Woman Be Home Tonight?
TTITLE3=Everyday I Have The Blues
TTITLE4=Lookin' Back
TTITLE5=Gambler's Blues
TTITLE6=Three Times A Fool
TTITLE7=So Many Roads
TTITLE8=I Can't Quit You Baby
EXTD=
EXTT0=
EXTT1=
EXTT2=
EXTT3=
EXTT4=
EXTT5=
EXTT6=
EXTT7=
EXTT8=
PLAYORDER=
